<?xml version="1.0" encoding="iso-8859-1"?>
<!-- Generator: Adobe Illustrator 17.1.0, SVG Export Plug-In . SVG Version: 6.00 Build 0)  -->
<!DOCTYPE svg PUBLIC "-//W3C//DTD SVG 1.1//EN" "http://www.w3.org/Graphics/SVG/1.1/DTD/svg11.dtd">
<svg version="1.1" id="Capa_1" xmlns="http://www.w3.org/2000/svg" xmlns:xlink="http://www.w3.org/1999/xlink" x="0px" y="0px"
	 viewBox="0 0 247.169 247.169" style="enable-background:new 0 0 247.169 247.169;" xml:space="preserve">
<g>
	<path d="M108.148,219.205l-21.571-21.573c-1.903-1.904-1.902-5.003,0.001-6.905c0.923-0.922,2.148-1.43,3.452-1.43
		c1.305,0,2.53,0.508,3.453,1.43l14.665,14.665v-26.036l-21.571-21.573c-1.903-1.904-1.902-5.002,0.001-6.905
		c0.923-0.922,2.148-1.43,3.452-1.43c1.305,0,2.53,0.508,3.453,1.43l14.665,14.666V139.51l-21.571-21.573
		c-1.903-1.904-1.902-5.003,0.001-6.905c0.923-0.922,2.148-1.43,3.452-1.43c1.305,0,2.53,0.508,3.453,1.43l14.665,14.665V99.662
		L86.577,78.089c-1.903-1.904-1.902-5.002,0.001-6.905c0.923-0.922,2.148-1.43,3.452-1.43c1.305,0,2.53,0.508,3.453,1.43
		l14.665,14.666V59.813L86.577,38.24c-1.903-1.904-1.902-5.003,0.001-6.905c0.923-0.922,2.148-1.43,3.453-1.43
		c1.304,0,2.53,0.508,3.452,1.43l14.665,14.666V1.198C79.806,5.792,62.79,23.464,62.79,49.61v147.95
		c0,26.145,17.017,43.817,45.358,48.412V219.205z"/>
	<path d="M139.021,1.198v44.805l14.668-14.667c0.922-0.922,2.147-1.43,3.452-1.43c1.304,0,2.53,0.508,3.453,1.43
		c1.903,1.905,1.903,5.003-0.001,6.906l-21.572,21.572v26.039l14.668-14.668c0.922-0.922,2.147-1.43,3.452-1.43
		c1.304,0,2.53,0.508,3.453,1.43c1.903,1.905,1.903,5.003-0.001,6.906L139.021,99.66v26.039l14.668-14.667
		c0.922-0.922,2.147-1.43,3.452-1.43c1.304,0,2.53,0.508,3.453,1.43c1.903,1.905,1.903,5.003-0.001,6.906l-21.572,21.571v26.038
		l14.668-14.667c0.922-0.922,2.147-1.43,3.452-1.43c1.304,0,2.53,0.508,3.453,1.43c1.903,1.905,1.903,5.003-0.001,6.906
		l-21.572,21.571v26.039l14.668-14.667c0.922-0.922,2.147-1.43,3.452-1.43c1.304,0,2.53,0.508,3.453,1.43
		c1.903,1.905,1.903,5.003-0.001,6.906l-21.572,21.571v26.767c28.342-4.595,45.358-22.267,45.358-48.412V49.61
		C184.379,23.464,167.363,5.792,139.021,1.198z"/>
	<path d="M127.375,0.071C126.126,0.027,124.866,0,123.584,0c-1.281,0-2.542,0.027-3.79,0.071v247.027
		c1.248,0.044,2.509,0.071,3.79,0.071c1.281,0,2.542-0.027,3.79-0.071V0.071z"/>
</g>
<g>
</g>
<g>
</g>
<g>
</g>
<g>
</g>
<g>
</g>
<g>
</g>
<g>
</g>
<g>
</g>
<g>
</g>
<g>
</g>
<g>
</g>
<g>
</g>
<g>
</g>
<g>
</g>
<g>
</g>
</svg>
