<?xml version="1.0" standalone="no"?>
<!DOCTYPE svg PUBLIC "-//W3C//DTD SVG 20010904//EN"
 "http://www.w3.org/TR/2001/REC-SVG-20010904/DTD/svg10.dtd">
<svg version="1.0" xmlns="http://www.w3.org/2000/svg"
 width="1280.000000pt" height="1280.000000pt" viewBox="0 0 1280.000000 1280.000000"
 preserveAspectRatio="xMidYMid meet">
<g transform="translate(0.000000,1280.000000) scale(0.100000,-0.100000)"
fill="#000000" stroke="none">
<path d="M6140 12790 c-41 -5 -149 -13 -240 -20 -1810 -129 -3524 -1077 -4627
-2560 -711 -956 -1144 -2092 -1238 -3255 -8 -104 -20 -240 -25 -301 -13 -141
-13 -367 0 -508 5 -61 17 -196 25 -301 137 -1675 966 -3258 2280 -4355 1011
-844 2290 -1365 3585 -1460 85 -6 199 -15 253 -21 126 -12 364 -12 497 1 58 5
170 14 250 20 788 58 1590 278 2315 635 2025 997 3388 3005 3555 5235 6 80 15
192 20 250 13 134 13 366 0 500 -5 58 -14 170 -20 250 -152 2041 -1306 3906
-3081 4977 -842 509 -1830 825 -2789 893 -85 6 -199 15 -253 21 -113 10 -397
10 -507 -1z m774 -525 c1801 -160 3414 -1127 4412 -2645 543 -826 860 -1753
945 -2765 27 -314 15 -837 -27 -1170 -211 -1694 -1130 -3194 -2547 -4159
-1388 -946 -3133 -1248 -4772 -826 -1633 421 -3031 1553 -3790 3069 -344 690
-540 1390 -606 2176 -17 193 -17 717 0 910 55 650 200 1247 443 1824 639 1514
1884 2697 3431 3260 558 203 1076 304 1762 345 122 7 585 -4 749 -19z"/>
<path d="M6672 9692 l3 -241 200 -5 c361 -8 657 -69 974 -202 473 -199 914
-576 1184 -1012 197 -318 302 -612 373 -1042 4 -25 10 -146 13 -270 l6 -225
240 0 240 0 3 130 c6 251 -25 519 -94 793 -259 1046 -1069 1887 -2106 2191
-279 81 -477 111 -791 118 l-247 6 2 -241z"/>
<path d="M6412 9000 l-22 -9 2 -233 3 -233 205 -6 c220 -7 320 -21 492 -69
447 -126 836 -413 1093 -805 205 -313 319 -710 314 -1090 l-2 -130 241 -3 242
-2 0 173 c0 390 -77 722 -249 1072 -352 715 -1032 1204 -1836 1321 -126 18
-452 28 -483 14z"/>
<path d="M3715 8739 c-247 -31 -589 -348 -808 -750 -134 -246 -281 -678 -316
-932 -100 -716 384 -1760 1321 -2849 163 -189 417 -413 780 -686 880 -664
1710 -1007 2300 -952 414 39 978 262 1308 518 257 199 425 436 451 636 34 261
-57 530 -247 736 -231 249 -782 491 -1118 490 -234 -1 -401 -91 -544 -295 -71
-100 -208 -244 -287 -301 -150 -106 -293 -150 -464 -141 -287 15 -527 169
-1035 667 -293 288 -577 607 -674 759 -96 150 -162 344 -162 479 0 136 63 311
160 442 66 89 153 170 292 273 131 97 185 158 234 262 46 101 57 171 51 332
-3 106 -11 161 -31 237 -80 300 -263 642 -434 810 -210 209 -481 302 -777 265z"/>
<path d="M6148 8053 l-68 -4 0 -242 0 -242 157 0 c179 0 263 -13 411 -61 459
-149 794 -535 877 -1008 9 -54 15 -149 15 -242 l0 -154 235 0 c231 0 234 0
246 22 16 30 5 335 -16 458 -157 889 -956 1522 -1857 1473z"/>
</g>
</svg>
